<svg xmlns="http://www.w3.org/2000/svg" version="1.1" id="UM_LOGO" x="0" y="0" xml:space="preserve" height="84.881" viewBox="0 0 76 85" width="76" height="85">
  <style type="text/css" id="style2">
    .st0{fill:#aa0000}
  </style>
  <path class="st0" d="M38.735 39.898v-6.149c0-.046.046-.046.046-.046H66.66c.046 0 .046 0 .046.046.693 2.59 2.265 5.27 3.791 6.981v.046c-.092.278-1.248 3.237-1.526 3.976v.046c1.341 2.774 3.098 8.322 2.173 13.408-1.063 5.825-2.126 7.443-5.409 9.477-2.589 1.618-4.947 2.312-7.258 2.034-3.098-.37-3.791-2.034-8.553.14-1.48.693-1.71.739-3.93 1.71-1.942.832-3.421 1.618-5.27 3.051a24 24 0 0 0-1.71 1.526c-.14.138-.37.046-.37-.185V64.817c.046-.046 3.143-3.144 7.581-1.618 9.709 3.375 11.974 2.219 11.974 2.219 0-2.127.047-22.515 0-22.515-.508.139-4.392.139-10.633-3.282-3.051-1.665-6.657.277-8.507 1.387-.23 0-.323-.047-.462-.047z" id="path46" style="stroke-width:.46231744"/>
  <path class="st0" d="M18.763 67.498c-.74 0-1.433-.046-1.988-.185l-.694-.185V41.1l1.064.139c.046 0 3.79.37 11.188-3.283 4.9-2.404 10.68 1.572 10.957 1.757v27.369l-.093-.37-.97-.74c-.14-.092-3.283-2.403-7.814-.831-3.606 1.155-8.322 2.357-11.65 2.357m-.879-1.849c2.45.231 7.028-.647 11.79-2.265 3.56-1.249 6.426-.463 8.09.277V41.008c-1.248-.786-5.363-2.96-8.645-1.341-5.78 2.866-9.524 3.421-11.235 3.467z" id="path48" style="stroke-width:.46231744"/>
  <path class="st0" id="rect50" style="cstroke-width:.46231744" d="M38.689 27.23h13.546v5.594H38.689z"/>
  <path class="st0" id="rect52" style="stroke-width:.46231744" d="M38.689 19.833h13.546v4.716H38.689z"/>
  <path class="st0" id="rect54" style="stroke-width:.46231744" d="M24.773 15.072h13.962v4.716H24.773z"/>
  <path class="st0" d="M38.689 12.436H24.773V7.443s1.294-.647 2.543-1.248c1.618-.786 2.82-1.433 3.883-1.526.879-.046 2.497.278 2.959.37 1.248.278 4.53.416 4.53.416z" id="path56" style="stroke-width:.46231744"/>
  <path class="st0" d="M22.138 12.436H6.788l2.636-4.068s3.236 1.48 6.426 1.387c3.699-.093 6.288-1.248 6.288-1.248z" id="path58" style="stroke-width:.46231744"/>
  <path class="st0" d="M22.138 19.787H10.626s-.462-1.294-.97-2.219c-.694-1.294-1.711-2.543-1.711-2.543h14.193Z" id="path60" style="stroke-width:.46231744"/>
  <path class="st0" d="M65.78 24.55H55.008v-4.717h11.743s-.416 1.249-.647 2.358c-.231 1.017-.324 2.358-.324 2.358" id="path62" style="stroke-width:.46231744"/>
  <path class="st0" d="M66.243 32.825h-11.28V27.23h10.725s-.046.786.185 2.96c.231 2.126.37 2.635.37 2.635" id="path64" style="stroke-width:.46231744"/>
  <path class="st0" d="M50.986 13.176c0-.832.416-1.572 1.064-2.034a1.6 1.6 0 0 0-.232.832c0 1.017.833 1.803 1.896 1.803s1.895-.786 1.895-1.803c0-.277-.092-.555-.23-.832a2.5 2.5 0 0 1 1.063 2.034c0 1.433-1.249 2.589-2.728 2.589s-2.728-1.156-2.728-2.589" id="path66" style="stroke-width:.46231744"/>
  <path class="st0" d="M42.665 8.553c0-.601.323-1.156.786-1.526a1.4 1.4 0 0 0-.14.601c0 .74.648 1.341 1.434 1.341s1.433-.601 1.433-1.34a1.3 1.3 0 0 0-.139-.602c.463.37.786.925.786 1.526 0 1.063-.924 1.942-2.08 1.942s-2.08-.879-2.08-1.942" id="path68" style="stroke-width:.46231744"/>
  <path class="st0" d="M42.665 16.736c0-.601.323-1.156.786-1.526a1.4 1.4 0 0 0-.14.601c0 .74.648 1.341 1.434 1.341s1.433-.601 1.433-1.34a1.3 1.3 0 0 0-.139-.602c.463.37.786.925.786 1.526 0 1.063-.924 1.942-2.08 1.942s-2.08-.879-2.08-1.942" id="path70" style="stroke-width:.46231744"/>
  <path class="st0" d="M60.834 11.003c0-.6.323-1.156.786-1.525a1.4 1.4 0 0 0-.14.6c0 .74.648 1.341 1.434 1.341s1.433-.6 1.433-1.34a1.3 1.3 0 0 0-.138-.601c.462.37.786.924.786 1.525 0 1.063-.925 1.942-2.08 1.942-1.157 0-2.081-.879-2.081-1.942" id="path72" style="stroke-width:.46231744"/>
  <path class="st0" d="M60.834 16.736c0-.601.323-1.156.786-1.526a1.4 1.4 0 0 0-.14.601c0 .74.648 1.341 1.434 1.341s1.433-.601 1.433-1.34a1.3 1.3 0 0 0-.138-.602c.462.37.786.925.786 1.526 0 1.063-.925 1.942-2.08 1.942-1.157 0-2.081-.879-2.081-1.942" id="path74" style="stroke-width:.46231744"/>
  <path class="st0" d="M20.843 25.52c0-.832.416-1.572 1.064-2.034a1.6 1.6 0 0 0-.232.832c0 1.017.833 1.803 1.896 1.803s1.895-.786 1.895-1.803c0-.277-.092-.555-.23-.832a2.5 2.5 0 0 1 1.063 2.034c0 1.433-1.249 2.589-2.728 2.589s-2.728-1.156-2.728-2.59" id="path76" style="stroke-width:.46231744"/>
  <path class="st0" d="M12.521 22.746c0-.601.324-1.156.786-1.526a1.4 1.4 0 0 0-.138.601c0 .74.647 1.341 1.433 1.341s1.433-.6 1.433-1.34a1.3 1.3 0 0 0-.139-.602c.463.37.786.925.786 1.526 0 1.063-.924 1.942-2.08 1.942s-2.08-.879-2.08-1.942" id="path78" style="stroke-width:.46231744"/>
  <path class="st0" d="M12.521 28.479c0-.601.324-1.156.786-1.526a1.4 1.4 0 0 0-.138.601c0 .74.647 1.34 1.433 1.34s1.433-.6 1.433-1.34a1.3 1.3 0 0 0-.139-.6c.463.369.786.924.786 1.525 0 1.063-.924 1.941-2.08 1.941s-2.08-.878-2.08-1.941" id="path80" style="stroke-width:.46231744"/>
  <path class="st0" d="M30.644 22.746c0-.601.324-1.156.786-1.526a1.4 1.4 0 0 0-.138.601c0 .74.647 1.341 1.433 1.341s1.433-.6 1.433-1.34a1.3 1.3 0 0 0-.139-.602c.463.37.786.925.786 1.526 0 1.063-.924 1.942-2.08 1.942s-2.08-.879-2.08-1.942" id="path82" style="stroke-width:.46231744"/>
  <path class="st0" d="M30.644 28.479c0-.601.324-1.156.786-1.526a1.4 1.4 0 0 0-.138.601c0 .74.647 1.34 1.433 1.34s1.433-.6 1.433-1.34a1.3 1.3 0 0 0-.139-.6c.463.369.786.924.786 1.525 0 1.063-.924 1.941-2.08 1.941s-2.08-.878-2.08-1.941" id="path84" style="stroke-width:.46231744"/>
  <path class="st0" id="polygon86" style="fill:" transform="translate(-38.565 -38.604)scale(.46232)" d="M167.1 154.5h-59.7l-1 1.9h60.7z"/>
  <path class="st0" d="M38.689 84.881c1.618-4.623 6.195-7.582 7.813-8.414 1.433-.74 7.073-3.051 7.397-3.097s1.895.6 3.051.832c7.212 1.248 12.483-2.82 14.933-5.317 3.514-3.56 4.762-9.8 4.253-15.95-.462-4.253-1.618-7.073-2.034-8.229v-.185l1.664-4.392.324-.878-.832-.509s-1.202-.832-2.45-2.681c-1.48-2.22-2.358-3.653-2.59-11.235.278-4.761 3.283-7.766 4.901-8.645 1.202-.555 2.635-1.156 1.988-2.265-1.294-1.896-6.75-10.217-6.75-10.217s-1.017-1.85-3.005-.324c-1.294.832-3.976 2.08-7.073 1.664-3.051-.416-6.103-1.941-8.46-3.143-.185-.093-.324-.185-.51-.278-1.2-.6-3.327-1.618-5.037-1.618-.925 0-1.156.509-3.976.601-1.803.046-2.034.139-3.514.185h-.277C37.024.74 36.747.693 34.99.6 32.17.509 31.94 0 31.014 0c-1.664 0-3.837 1.017-5.04 1.618-.184.093-.323.185-.508.277-2.357 1.203-5.455 2.728-8.46 3.144-3.098.416-5.733-.832-7.074-1.664-1.987-1.48-3.005.324-3.005.324S1.518 12.02.177 13.916c-.693 1.11.787 1.71 1.989 2.265 1.664.879 4.623 3.93 4.9 8.645-.231 7.536-1.063 9.016-2.589 11.235-1.248 1.849-2.404 2.681-2.45 2.681l-.832.509.323.878 1.665 4.392v.185c-.463 1.156-1.618 3.976-2.035 8.23-.508 6.102.74 12.343 4.254 15.95 2.45 2.45 7.72 6.564 14.933 5.316 1.155-.231 2.727-.878 3.05-.832.325.046 5.919 2.358 7.398 3.097 1.71.786 6.288 3.745 7.906 8.414m0-81.737s1.895-.046 3.883-.324c1.988-.277 3.375-.508 3.93-.416s.832.139 1.664.462a50 50 0 0 1 2.635 1.156c2.497 1.295 5.826 2.913 9.247 3.375 3.883.555 7.12-1.017 8.691-2.034l5.687 8.645a10 10 0 0 0-2.543 1.85c-1.757 1.71-3.837 4.946-3.791 10.54.046 8.322 3.606 12.344 5.224 13.777l-1.387 3.653-.323.878s2.08 4.854 2.265 8.6c.139 3.744-.647 7.766-1.34 9.754s-2.035 4.947-6.982 7.49c0 0-3.837 1.988-7.073 1.525-.324-.046-.601-.138-.925-.185-.231-.046-.462-.092-.74-.138l-.554-.139c-.139-.046-.278-.046-.416-.093-.093-.046-.185-.046-.278-.092-1.48-.509-2.912-.093-3.19.046-.138.093-4.993 1.988-6.796 2.959-.97.509-5.501 3.098-6.565 5.64-.046.093-.092.139-.185.139h-.185c-.092 0-.138-.046-.185-.139-1.063-2.542-5.594-5.131-6.564-5.64-1.803-.97-6.612-2.866-6.796-2.959-.278-.139-1.665-.555-3.19-.046-.093.046-.185.046-.278.092a1.3 1.3 0 0 1-.416.093l-.555.139c-.23.046-.462.092-.74.138-.323.047-.6.14-.924.185-3.236.509-7.074-1.525-7.074-1.525-4.946-2.497-6.287-5.456-6.98-7.49-.694-1.988-1.48-6.01-1.341-9.755.138-3.745 2.265-8.599 2.265-8.599l-.324-.878-1.386-3.653c1.618-1.387 5.177-5.409 5.224-13.777.046-5.594-2.034-8.83-3.791-10.54-.925-.879-1.803-1.48-2.543-1.85L8.73 5.363c1.572 1.017 4.809 2.543 8.692 2.034 3.421-.462 6.704-2.08 9.246-3.375.232-.139 1.803-.832 2.636-1.156.832-.323 1.11-.37 1.664-.462.555-.092 1.988.139 3.93.416 1.895.278 3.79.324 3.79.324" id="path88" style="stroke-width:.46231744"/>
</svg>
